<svg width="152" height="91" viewBox="0 0 152 91" fill="none" xmlns="http://www.w3.org/2000/svg">
<g clip-path="url(#clip0_17_147)">
<path d="M46.9969 80.96C45.8235 80.96 44.4635 80.2667 42.9169 78.88C41.3702 77.4933 39.7169 75.6533 37.9569 73.36C36.2502 71.0667 34.5435 68.5867 32.8369 65.92C31.1835 63.2 29.6369 60.5067 28.1969 57.84C26.8102 55.1733 25.6369 52.8 24.6769 50.72L16.9169 75.84C16.5435 77.0667 15.9569 77.92 15.1569 78.4C14.3569 78.9333 13.4769 79.2533 12.5169 79.36C11.6102 79.4667 10.7035 79.52 9.79688 79.52C10.4902 78.0267 11.1835 76.32 11.8769 74.4C12.6235 72.48 13.4769 70.16 14.4369 67.44C15.4502 64.72 16.6235 61.4133 17.9569 57.52C19.2902 53.6267 20.8635 48.9867 22.6769 43.6C24.5435 38.16 26.7302 31.7867 29.2369 24.48C29.3969 24.0533 29.6102 23.4667 29.8769 22.72C30.1435 21.92 30.2769 21.2 30.2769 20.56C30.2769 19.9733 30.1435 19.52 29.8769 19.2C29.6102 18.8267 29.1035 18.64 28.3569 18.64C27.0769 18.64 25.8235 19.1733 24.5969 20.24C23.4235 21.2533 22.3569 22.56 21.3969 24.16C20.4902 25.76 19.7702 27.4133 19.2369 29.12C18.7035 30.8267 18.4369 32.3467 18.4369 33.68C18.4369 34.6933 18.5702 35.6 18.8369 36.4C17.0769 36.4 15.8235 35.9733 15.0769 35.12C14.3835 34.2133 14.0369 33.12 14.0369 31.84C14.0369 30.0267 14.5702 28.2133 15.6369 26.4C16.7035 24.5867 18.0635 22.9333 19.7169 21.44C21.4235 19.8933 23.1835 18.6667 24.9969 17.76C26.8635 16.8533 28.5435 16.4 30.0369 16.4C31.4769 16.4 32.4369 16.8 32.9169 17.6C33.4502 18.4 33.7169 19.28 33.7169 20.24C33.7169 20.8267 33.6369 21.4133 33.4769 22C33.3702 22.5867 33.2369 23.1467 33.0769 23.68L26.3569 45.44C27.1035 44.3733 28.0635 43.3867 29.2369 42.48C30.4635 41.5733 31.7969 40.5333 33.2369 39.36C35.6369 37.44 38.1969 35.2 40.9169 32.64C43.6902 30.08 46.3302 27.3867 48.8369 24.56C51.3435 21.7333 53.4235 19.0133 55.0769 16.4C55.3435 16.72 55.5302 17.28 55.6369 18.08C55.7435 18.88 55.7969 19.4933 55.7969 19.92C55.7969 21.5733 55.1036 23.3867 53.7169 25.36C52.3836 27.3333 50.6235 29.3867 48.4369 31.52C46.2502 33.6 43.8502 35.68 41.2369 37.76C38.6235 39.7867 36.0369 41.7067 33.4769 43.52C30.9702 45.3333 28.7035 46.9067 26.6769 48.24C28.2769 50.96 29.8235 53.5467 31.3169 56C32.8635 58.4533 34.5169 60.8533 36.2769 63.2C38.0902 65.5467 40.1969 67.9467 42.5969 70.4C44.9969 72.8533 47.9035 75.4933 51.3169 78.32C50.9436 79.0133 50.3569 79.6267 49.5569 80.16C48.7569 80.6933 47.9035 80.96 46.9969 80.96ZM102.104 76.48C100.238 76.48 98.8777 75.8933 98.0244 74.72C97.171 73.6 96.7444 72.24 96.7444 70.64C96.7444 69.3067 96.931 67.9733 97.3044 66.64C97.731 65.3067 98.131 64 98.5044 62.72C98.931 61.44 99.1444 60.2933 99.1444 59.28C99.1444 58.2133 98.9044 57.4667 98.4244 57.04C97.9444 56.6133 97.411 56.4 96.8244 56.4C95.491 56.4 94.0244 57.44 92.4244 59.52C90.8777 61.6 88.851 64.5333 86.3444 68.32C85.491 69.6 84.771 70.9067 84.1844 72.24C83.5977 73.52 83.0377 74.6933 82.5044 75.76C82.0777 75.76 81.5444 75.7067 80.9044 75.6C80.2644 75.4933 79.6777 75.3067 79.1444 75.04C78.6644 74.8267 78.4244 74.5333 78.4244 74.16C78.4244 73.7867 78.6644 72.9067 79.1444 71.52C79.6777 70.08 80.2644 68.4267 80.9044 66.56C81.5977 64.64 82.1844 62.72 82.6644 60.8C83.1977 58.8267 83.4644 57.1467 83.4644 55.76C83.4644 54.8533 83.3044 54.1333 82.9844 53.6C82.7177 53.0133 82.211 52.72 81.4644 52.72C80.291 52.72 78.8777 53.44 77.2244 54.88C75.571 56.2667 73.8644 58.1067 72.1044 60.4C70.3444 62.6933 68.6644 65.2267 67.0644 68C65.5177 70.72 64.2644 73.44 63.3044 76.16C62.8244 76.16 62.2377 76.08 61.5444 75.92C60.851 75.76 60.2644 75.5467 59.7844 75.28C59.251 75.0133 58.9844 74.7467 58.9844 74.48C58.9844 74.16 59.2777 73.2267 59.8644 71.68C60.3977 70.08 61.0377 68.1867 61.7844 66C62.4777 63.76 63.091 61.4933 63.6244 59.2C64.211 56.9067 64.5044 54.88 64.5044 53.12C64.8244 52.7467 65.331 52.3733 66.0244 52C66.7177 51.6267 67.4377 51.44 68.1844 51.44C68.931 51.44 69.4644 51.6267 69.7844 52C70.1577 52.3733 70.3444 52.88 70.3444 53.52C70.3444 54.2133 70.131 55.4133 69.7044 57.12C69.331 58.7733 68.851 60.6133 68.2644 62.64C69.331 60.9333 70.531 59.2 71.8644 57.44C73.251 55.6267 74.691 53.9733 76.1844 52.48C77.6777 50.9867 79.171 49.7867 80.6644 48.88C82.211 47.92 83.7044 47.44 85.1444 47.44C86.7977 47.44 87.9177 48.0533 88.5044 49.28C89.1444 50.4533 89.4644 51.8667 89.4644 53.52C89.4644 54.8533 89.3044 56.2667 88.9844 57.76C88.7177 59.2 88.3977 60.56 88.0244 61.84C87.651 63.0667 87.3044 64.0533 86.9844 64.8C88.1044 62.7733 89.331 60.8267 90.6644 58.96C92.051 57.04 93.5444 55.4933 95.1444 54.32C96.7444 53.0933 98.451 52.48 100.264 52.48C101.971 52.48 103.144 52.9867 103.784 54C104.478 55.0133 104.824 56.2133 104.824 57.6C104.824 58.9867 104.584 60.5067 104.104 62.16C103.624 63.8133 103.118 65.4133 102.584 66.96C102.104 68.5067 101.864 69.84 101.864 70.96C101.864 71.6533 102.024 72.2933 102.344 72.88C102.718 73.4133 103.358 73.68 104.264 73.68C105.758 73.68 107.144 73.0133 108.424 71.68C109.758 70.2933 110.984 68.64 112.104 66.72C113.224 64.7467 114.184 62.8533 114.984 61.04L115.944 62.16C115.091 64.4 113.998 66.64 112.664 68.88C111.331 71.0667 109.758 72.88 107.944 74.32C106.184 75.76 104.238 76.48 102.104 76.48ZM126.463 76.08C124.383 76.08 122.836 75.4133 121.823 74.08C120.81 72.8 120.303 71.2267 120.303 69.36C120.303 68.1333 120.516 66.5867 120.943 64.72C121.423 62.8533 122.036 60.9067 122.783 58.88C123.53 56.8 124.383 54.8533 125.343 53.04C126.356 51.2267 127.423 49.76 128.543 48.64C129.663 47.4667 130.756 46.88 131.823 46.88C132.303 46.88 132.703 47.04 133.023 47.36C133.396 47.6267 133.583 48.0533 133.583 48.64C133.583 49.28 133.156 50.32 132.303 51.76C131.503 53.2 130.543 54.8533 129.423 56.72C128.303 58.5867 127.316 60.56 126.463 62.64C125.663 64.6667 125.263 66.6133 125.263 68.48C125.263 70.4 125.583 71.68 126.223 72.32C126.863 72.96 127.85 73.28 129.183 73.28C130.996 73.28 132.916 72.3733 134.943 70.56C137.023 68.7467 139.21 65.5733 141.503 61.04L142.223 61.84C140.676 66.4267 138.436 69.9467 135.503 72.4C132.623 74.8533 129.61 76.08 126.463 76.08ZM136.063 39.44C135.21 39.44 134.436 39.2267 133.743 38.8C133.103 38.3733 132.783 37.7067 132.783 36.8C132.783 35.68 133.423 34.72 134.703 33.92C136.036 33.0667 137.343 32.64 138.623 32.64C139.423 32.64 140.063 32.8267 140.543 33.2C141.023 33.5733 141.263 34.2133 141.263 35.12C141.263 36.1333 140.703 37.12 139.583 38.08C138.516 38.9867 137.343 39.44 136.063 39.44Z" fill="white"/>
</g>
<defs>
<clipPath id="clip0_17_147">
<rect width="152" height="91" fill="white"/>
</clipPath>
</defs>
</svg>
