<svg width="1440" height="604" viewBox="0 0 1440 604" fill="none" xmlns="http://www.w3.org/2000/svg">
<path d="M155.977 265.414C73.3462 164.679 28.7814 209.451 0 224.374V604H1440V214.114C1407.81 157.839 1314.66 52.7501 1199.54 82.5979C1084.41 112.446 1064.29 216.912 1068.63 265.414C1044.49 224.374 973.184 144.345 881.083 152.553C788.983 160.762 782.05 211.316 790.097 235.567L772.456 224.374C779.265 213.803 790.282 180.722 779.884 132.966C754.816 0.517465 607.195 -20.9363 559.845 16.3733C512.495 53.683 476.286 75.136 460.503 192.661C421.88 58.3465 323.714 38.4481 279.458 45.2882C100.271 103.118 167.861 244.521 155.977 265.414Z" fill="#262626"/>
</svg>
